<?xml version="1.0" encoding="UTF-8"?>
<svg width="19px" height="17px" viewBox="0 0 19 17" version="1.1" xmlns="http://www.w3.org/2000/svg" xmlns:xlink="http://www.w3.org/1999/xlink">
    <!-- Generator: Sketch 52 (66869) - http://www.bohemiancoding.com/sketch -->
    <title>Combined Shape</title>
    <desc>Created with Sketch.</desc>
    <g id="Page-1" stroke="none" stroke-width="1" fill="none" fill-rule="evenodd">
        <g id="Incomplete-Step-1" transform="translate(-310.000000, -1344.000000)" fill="#F46363">
            <path d="M318.144954,1344.72142 C318.694274,1343.76011 319.584226,1343.75894 320.134219,1344.72142 L328.045501,1358.56617 C328.594821,1359.52748 328.137868,1360.30678 327.03253,1360.30678 L311.246642,1360.30678 C310.137874,1360.30678 309.683679,1359.52866 310.233672,1358.56617 L318.144954,1344.72142 Z M320.140632,1352.22543 C320.140632,1351.91852 320.045395,1351.67889 319.854918,1351.50651 C319.66444,1351.33414 319.422685,1351.24795 319.129643,1351.24795 C318.836601,1351.24795 318.598508,1351.33414 318.415357,1351.50651 C318.232206,1351.67889 318.140632,1351.93534 318.140632,1352.27588 L318.140632,1357.20111 C318.140632,1357.53745 318.232206,1357.796 318.415357,1357.97678 C318.598508,1358.15756 318.836601,1358.24795 319.129643,1358.24795 C319.422685,1358.24795 319.66444,1358.15967 319.854918,1357.98309 C320.045395,1357.80651 320.140632,1357.54585 320.140632,1357.20111 L320.140632,1352.22543 Z M319.151621,1350.204 C319.420242,1350.204 319.65223,1350.11731 319.847592,1349.94392 C320.042953,1349.77054 320.140632,1349.53001 320.140632,1349.22231 C320.140632,1348.90485 320.040511,1348.6631 319.840266,1348.49704 C319.64002,1348.33098 319.410474,1348.24795 319.151621,1348.24795 C318.882999,1348.24795 318.647348,1348.33953 318.444661,1348.52268 C318.241974,1348.70583 318.140632,1348.93904 318.140632,1349.22231 C318.140632,1349.53489 318.239532,1349.77665 318.437335,1349.94759 C318.635138,1350.11853 318.873231,1350.204 319.151621,1350.204 Z" id="Combined-Shape"></path>
        </g>
    </g>
</svg>